REM GENRE Rock
REM DATE 1985
PERFORMER "Dire Straits"
TITLE "Brothers In Arms (Full Length Version)"
FILE "Dire Straits - Brothers In Arms (Full Length Version).flac" WAVE
  TRACK 01 AUDIO
    TITLE "Brothers In Arms (Full Length Version)"
    INDEX 01 00:00:00
  TRACK 02 AUDIO
    TITLE "Going Home - Theme From 'Local Hero' (Live Version)"
    INDEX 01 06:59:00
  TRACK 03 AUDIO
    TITLE "Why Worry (Instrumental Segment)"
    INDEX 01 12:00:00
